<?xml version="1.0" encoding="UTF-8" standalone="no"?>
<!-- Created with Inkscape (http://www.inkscape.org/) -->

<svg
   version="1.1"
   id="svg2"
   width="4005.3867"
   height="3410.6667"
   viewBox="0 0 4005.3867 3410.6667"
   sodipodi:docname="vecteezy_a-spider-web-with-a-black-spider-halloween-widow-black_50547969.eps"
   xmlns:inkscape="http://www.inkscape.org/namespaces/inkscape"
   xmlns:sodipodi="http://sodipodi.sourceforge.net/DTD/sodipodi-0.dtd"
   xmlns="http://www.w3.org/2000/svg"
   xmlns:svg="http://www.w3.org/2000/svg">
  <defs
     id="defs6" />
  <sodipodi:namedview
     id="namedview4"
     pagecolor="#ffffff"
     bordercolor="#000000"
     borderopacity="0.25"
     inkscape:showpageshadow="2"
     inkscape:pageopacity="0.0"
     inkscape:pagecheckerboard="0"
     inkscape:deskcolor="#d1d1d1" />
  <g
     id="g8"
     inkscape:groupmode="layer"
     inkscape:label="ink_ext_XXXXXX"
     transform="matrix(1.3333333,0,0,-1.3333333,0,3410.6667)">
    <g
       id="g10"
       transform="scale(0.1)">
      <path
         d="m 22497.7,8180.5 -2248,3166.6 -3560.1,1324.1 4775.5,1656.1 2645.5,3116.1 -2976.9,-2617.9 -4075.6,-1429.1 93.2,379.8 2401.1,2327.2 575.1,3421.6 431.5,3249.5 -819.8,-3478.6 -791.4,-2796.2 -1683.5,-1903 c 0,0 124.8,994.4 -490.3,1738 -636,769.1 -1537.8,806.5 -1671.5,809.7 -214.6,-17.2 -875.7,-98 -1441,-628.9 -790.5,-742.2 -748,-1758 -739.2,-1906.5 l -1697.6,1842.3 -709.9,2884.5 -882.86,3424.1 L 10683.8,16044.6 13195,13408.2 9121.18,14802.4 6129.41,17401.1 9050.51,14181.5 13514.7,12618.7 9816.14,11308.9 7675.67,8135.7 10267.4,10776.5 13901.8,12145.8 11277.6,9409.9 9085.11,3501.8 11858.1,9055.1 c 655.3,725.7 1310.7,1451.4 1966,2177.1 -137.8,-295.5 -217,-640.8 -217,-1009.7 0,-1091.5 692.7,-1976.4 1547.2,-1976.4 854.5,0 1547.2,884.9 1547.2,1976.4 0,371.8 -80.4,719.5 -220.1,1016.5 l 1882.9,-2093.1 2788.7,-5514.5 -2203.7,5751.2 -2590,2788.3 3384.9,-1240.7 2753.5,-2749.7"
         style="fill:#231f20;fill-opacity:1;fill-rule:nonzero;stroke:none"
         id="path12" />
      <path
         d="m 16461.3,10164.5 c 0,-898.5 -580.5,-1627 -1296.4,-1627 -716,0 -1296.5,728.5 -1296.5,1627 0,898.6 580.5,1627 1296.5,1627 715.9,0 1296.4,-728.4 1296.4,-1627"
         style="fill:#ee252c;fill-opacity:1;fill-rule:nonzero;stroke:none"
         id="path14" />
      <path
         d="m 14640.7,14443.5 c -263.5,22.5 -442.2,168.9 -509.6,230.8 -56.9,64.6 -178.9,221.1 -212.4,455 -20.6,143.8 -0.1,263.7 19.4,339 147.9,-54.7 444.8,-188.5 691.7,-491.4 155.4,-190.6 236.1,-380.8 279,-511.6 -68.5,-17 -160.6,-31 -268.1,-21.8 z m -102.6,940.5 c -204.6,274.3 -369.6,389.2 -518,456.5 -66.5,30.2 -124.6,48.6 -165.1,59.7 -47.7,-65.9 -198.4,-291.8 -185.4,-614.7 13.1,-326.8 185.3,-541.5 238.1,-602.6 65.3,-73.6 219.4,-227.5 470.5,-307 313.2,-99.2 578.4,-20 667.6,11 -76.2,226.5 -232.3,628.1 -507.7,997.1"
         style="fill:#ee252c;fill-opacity:1;fill-rule:nonzero;stroke:none"
         id="path16" />
      <path
         d="m 15472.5,14465.3 c 42.9,130.8 123.6,321 279,511.6 246.9,302.9 543.8,436.7 691.8,491.4 19.5,-75.3 39.9,-195.2 19.4,-339 -33.6,-233.9 -155.6,-390.4 -212.5,-455 -67.4,-61.9 -246,-208.3 -509.5,-230.8 -107.6,-9.2 -199.7,4.8 -268.2,21.8 z m -137,-78.4 c 89.2,-31 354.4,-110.2 667.6,-11 251.1,79.5 405.3,233.4 470.5,307 52.8,61.1 225,275.8 238.1,602.6 13.1,322.9 -137.7,548.8 -185.4,614.7 -40.5,-11.1 -98.6,-29.5 -165.1,-59.7 -148.4,-67.3 -313.4,-182.2 -518,-456.5 -275.4,-369 -431.5,-770.6 -507.7,-997.1"
         style="fill:#ee252c;fill-opacity:1;fill-rule:nonzero;stroke:none"
         id="path18" />
      <path
         d="m 0,7161.4 1043.31,293 1043.88,290.9 2088.6,578.7 -2.8,-0.9 c 1106.68,391.9 2212.74,784.8 3320.06,1174 l 415.12,146.2 207.55,73.1 c 34.54,12.4 69.31,24.1 103.65,36.9 l 101.19,43.2 809.58,344.9 809.89,344 404.87,172 202.5,86 c 67.5,28.5 135.1,56.9 202,86.8 l 804.9,353.6 402.5,176.8 50.3,22.1 c 16.7,7.6 32.8,16.5 49.2,24.6 l 98.1,49.9 196.2,99.7 1570,797.4 3141.9,1590.8 -6.9,-3.9 920.6,585.6 460.3,292.8 230.2,146.3 115.1,73.2 57.6,36.6 56.5,38.1 1811.3,1217.2 4.6,3 4.5,2.2 2070.9,987.8 1035.8,493.3 1036.3,492.2 -8.8,-5.4 1186.3,891.6 1187.6,889.7 1188.8,888.3 1190.7,885.7 -1170.6,-912.1 -1172.4,-909.7 -1173.7,-908.2 -1174.9,-906.4 -3.9,-3 -4.9,-2.4 -1030.7,-503.7 -1031.3,-502.7 -2063.1,-1004.1 9,5.2 -1806.7,-1227.4 -56.5,-38.4 -57.5,-36.8 -115,-73.6 -230,-147.1 -460,-294.3 -920.1,-588.4 -3.3,-2.2 -3.6,-1.8 -3144.4,-1591.9 -1573.2,-793.9 -196.7,-99.2 -98.3,-49.6 c -16.5,-8.1 -32.6,-16.9 -49.4,-24.4 l -50.6,-21.9 -404.7,-175.7 -809.4,-351.3 c -67.3,-29.6 -135.2,-57.7 -203,-86.1 l -203.4,-84.9 -406.89,-169.7 -813.66,-339.5 -813.96,-338.4 -101.75,-42.3 c -34.5,-12.5 -69.42,-23.9 -104.11,-36 l -208.46,-71.3 -416.9,-142.7 C 6424.43,9002.2 5311.76,8624.7 4199.7,8246.2 l -1.66,-0.6 -1.14,-0.3 L 2099.16,7700.7 1049.85,7430 0,7161.4"
         style="fill:#231f20;fill-opacity:1;fill-rule:nonzero;stroke:none"
         id="path20" />
      <path
         d="m 416.902,21889.7 1208.158,-887.7 1206.29,-890.2 1205.13,-891.8 1203.8,-893.6 -6.89,4.4 1272.54,-661.9 1272.07,-663 1271.63,-663.9 158.9,-83.1 c 52.58,-28.3 104.36,-58.1 156.57,-87.1 l 312.69,-175.2 625.11,-350.8 625,-350.9 312.5,-175.5 156.3,-87.8 c 13,-7.2 25.9,-14.8 39.1,-21.7 l 40.1,-20 80.2,-40 1283.2,-640.1 1282.6,-641.1 641.3,-320.6 320.4,-160.6 c 105.5,-56.3 210.1,-114.1 315.2,-171 l 2519,-1373.3 157.4,-85.8 158,-83.8 316.1,-167.8 632.1,-335.4 158,-83.9 19.8,-10.5 c 6.6,-3.5 13.5,-6.2 20.3,-9.3 l 40.8,-18.2 81.7,-36.5 326.7,-146 653.4,-292.1 653.4,-292.4 326.5,-146.6 163.3,-73.3 81.6,-36.6 20.5,-9.2 21,-7.8 41.9,-15.6 1343.5,-499.4 1343.1,-500.8 1342.8,-502 -3.9,1.3 2113,-558.6 1056,-280.9 1055.6,-283.1 -1061.9,258.3 -1061.3,260.4 -2121.8,524.2 -1.8,0.4 -2.2,0.8 -1350.1,485.3 -1349.9,486.5 -1349.5,487.8 -42.1,15.3 -21.1,7.6 -20.6,9 -82.2,36 -164.5,72 -329,144.1 -657.6,288.9 -657.7,289.1 -328.8,144.7 -82.2,36.2 -41.1,18.1 c -6.8,3.1 -13.8,5.8 -20.4,9.3 l -19.9,10.4 -159,83.5 -636.3,333.8 -318.1,167 -159.1,83.5 -157.6,85.3 -2520.4,1367.5 c -105.1,56.8 -209.7,114.5 -315.2,170.7 l -320.7,160.3 -641.2,321.3 -1282.3,642.7 -1281.7,643.7 -80.1,40.2 -40,20.2 c -13.3,6.9 -26.1,14.6 -39.2,21.8 l -156,88.4 -311.9,177.1 -623.9,354 -623.82,354.1 -311.78,177.2 c -52.06,29.4 -103.7,59.6 -156.1,88.3 l -158.28,84 -1265.9,673.2 -1265.44,674.1 -1264.97,675.1 -3.87,2.1 -3.03,2.3 -1192.52,908.6 -1191.19,910.3 -1190.04,911.8 -1188.158,914.3"
         style="fill:#231f20;fill-opacity:1;fill-rule:nonzero;stroke:none"
         id="path22" />
      <path
         d="m 15114.8,0 c -26.6,1079.9 -45.7,2160 -65.4,3240.1 l -26.1,1620.3 -22.8,1620.3 -5.6,405.1 c -0.6,67.5 -2.4,135 -2.1,202.6 l 3.3,202.7 14.7,810.7 30.8,1621.6 8.1,405.4 2.1,101.3 c 1,33.8 0.2,67.7 3.9,101.3 l 16.3,202 65.4,808.1 132.9,1616.2 0.4,-17.2 -289.2,2227.5 -0.7,5.2 v 5 l 3.2,1299.9 2,649.9 1.4,325 c 0,54.2 0.9,108.4 0.2,162.5 l -2.3,162.5 -17.6,1300 -4.2,325.1 -2,162.5 c -0.7,54.1 -1.7,108.3 -1.4,162.5 l 0.2,650.2 3.1,1300.5 1.7,650.2 3.2,650.2 3.1,650.2 4.4,650.2 c 2.8,433.5 6.6,866.9 11.3,1300.4 9.6,-433.4 18.2,-866.8 25.9,-1300.1 l 11.7,-650.1 10.4,-650 10.4,-650.1 9,-650 17.7,-1300.1 7.5,-650.1 c 0.3,-54.1 2,-108.3 3.3,-162.5 l 4,-162.5 8,-325 31.1,-1300.1 3.7,-162.5 c 1.1,-54.2 0.7,-108.4 1.1,-162.6 l 1.4,-325.2 2,-650.3 3.2,-1300.6 -0.7,10.1 294,-2226.8 1.1,-8.5 -0.7,-8.6 -134.3,-1613.1 -68.2,-806.5 -17,-201.7 c -3.8,-33.5 -3.1,-67.3 -4.3,-101 l -2.4,-101.1 -10,-404.4 -41.4,-1617.9 -21.5,-809.1 -5.7,-202.2 c -1.1,-67.5 0,-135 -0.2,-202.5 l 0.8,-404.9 2.7,-1619.9 -0.6,-1619.9 c -2.7,-1080 -4.7,-2160 -14.3,-3240.2"
         style="fill:#231f20;fill-opacity:1;fill-rule:nonzero;stroke:none"
         id="path24" />
      <path
         d="M 4410.59,8397.5 C 6271.3,7949.5 8099.23,7328.6 9846.65,6550.9 11679.7,5735 13442.2,4738.7 15087.2,3588.5 c 1454.6,1035.2 3008.5,1946 4620.1,2707.8 1875.6,886.6 3849.7,1581.7 5870.6,2067.4 -667,1506.4 -1084.9,3100.4 -1242.7,4740.9 -161.7,1679.8 -46.6,3362 341.9,5003.3 -755.5,27.5 -1513.2,117.8 -2255.2,268.8 -1157.5,235.6 -2278.9,618.9 -3333.1,1139.2 -920,454.1 -1791.1,1014 -2589.2,1664.1 -532.3,433.7 -1035.4,910.3 -1497.4,1418.7 -459.1,-503.3 -958.6,-975.3 -1486.8,-1404.9 -790,-642.6 -1651.7,-1196.9 -2561.1,-1647.6 -1043.98,-517.4 -2154.48,-900.4 -3300.68,-1138.3 -739.13,-153.5 -1494.24,-246.6 -2247.49,-277.4 314.25,-1585.3 396.63,-3202.8 244.85,-4811.1 C 5490.87,11622.9 5073.71,9967.9 4410.59,8397.5 Z m 10678.31,-5205.3 -93.9,66.2 c -1654.7,1166 -3431,2174.4 -5279.77,2997.2 -1787.52,795.6 -3660.1,1425.3 -5565.74,1871.7 l -188.73,44.2 77.45,177.7 c 693.72,1591.7 1128.08,3274.1 1291.01,5000.6 154.74,1639.6 61.27,3289 -277.81,4902.5 l -39.85,189.6 193.67,5.2 c 1938.69,51.8 3877.07,532 5605.57,1388.6 1548.4,767.4 2918.1,1814.5 4070.9,3112.1 l 121,136.2 120.8,-136.5 c 1161.4,-1312.4 2543.6,-2369.5 4108.3,-3141.8 1743.8,-860.6 3698.6,-1338 5653.1,-1380.6 l 202.4,-4.4 -49.2,-196.4 c -417.5,-1667 -545.7,-3379.1 -381.2,-5088.7 160.7,-1669.9 596.6,-3290.5 1295.6,-4816.7 l 82.3,-179.7 -192.5,-44.9 C 23777.1,7612.1 21759.4,6908.8 19845.4,6004.1 18216.8,5234.2 16647.9,4310.7 15182.3,3259.2 l -93.4,-67"
         style="fill:#231f20;fill-opacity:1;fill-rule:nonzero;stroke:none"
         id="path26" />
      <path
         d="m 14996.1,6832.3 -55,58.3 c -927.9,984.3 -2084.4,1747.9 -3344.4,2208.3 -1075.6,392.9 -2204.71,566.9 -3356.05,517.1 l -96.24,-4.2 19.06,94.4 c 257.66,1276.5 232.28,2607.3 -73.4,3848.7 -593.84,2411.5 -2090.16,3963 -2929.24,4673.1 l 97.43,115.1 c 556.52,-471 1059.43,-1009.9 1494.75,-1601.7 705.92,-959.6 1205.04,-2019.6 1483.51,-3150.5 182.21,-739.9 267.66,-1505 253.97,-2273.9 -9.19,-516.3 -63.24,-1036.1 -160.74,-1546.7 1138.18,37.3 2254.15,-140.9 3318.65,-529.8 1257.2,-459.3 2413,-1215.2 3347.4,-2188.6 534.5,561.2 1121.4,1050.5 1745.5,1455.4 988,640.9 2049.4,1057.4 3155,1238 562.7,91.9 1140.1,122.6 1717.7,91.4 -164.1,1109.9 -201,2787.3 494.4,4636.5 708.9,1884.9 1872.9,3133 2724.5,3848.1 l 97,-115.5 c -837.8,-703.5 -1983,-1931.4 -2680.3,-3785.7 -703.5,-1870.5 -645.2,-3562.5 -472.4,-4652.5 l 14.7,-93.3 -94.2,6.2 c -597.4,39.3 -1195.3,11 -1777.1,-84 -2276,-371.9 -3904.4,-1676.6 -4869.6,-2705.7 l -54.9,-58.5"
         style="fill:#231f20;fill-opacity:1;fill-rule:nonzero;stroke:none"
         id="path28" />
      <path
         d="m 10771.8,10792.5 c 633,-120.4 1257.4,-298.4 1856.7,-529.3 876.3,-337.7 1707.5,-790.8 2471.1,-1347.1 561.6,386.6 1157.9,730 1773,1021 798.4,377.7 1639.8,672.9 2501.6,877.7 7.8,834.8 98.3,1670.9 269.2,2486.1 211,1006.7 545.2,1987.4 993.6,2916.5 -1242,263 -2405.3,745.9 -3459.4,1436.4 -804.9,527.2 -1530.3,1167.3 -2157.3,1903.4 -730.5,-859.8 -1590.5,-1590.1 -2557.7,-2171.6 -981.2,-590 -2045.3,-1010.6 -3164.34,-1250.9 435.35,-918.4 784.34,-1881.2 1037.84,-2863.3 209.2,-810.6 355.7,-1644.3 435.7,-2478.9 z m 4325.2,-2061.7 -43.4,32 c -764.7,562.9 -1598.8,1020.4 -2479.3,1359.7 -608.3,234.4 -1242.8,413.4 -1886,532.1 l -56.1,10.4 -5.3,56.9 c -77.9,845.6 -224.9,1690.7 -436.8,2511.8 -259.06,1003.6 -618.77,1986.8 -1069.19,2922.4 l -41.96,87.1 94.75,19.5 c 1136.8,233.1 2217.2,654.4 3211.2,1252.1 978.3,588.3 1845.5,1331 2577.4,2207.7 l 57.8,69.3 57.9,-69.2 c 630.6,-753.7 1364.8,-1407.3 2182.2,-1942.7 1064.9,-697.5 2243.2,-1180.1 3502.1,-1434.3 l 95.9,-19.4 -43.2,-87.8 c -464.4,-943.7 -808.9,-1942.4 -1024,-2968.4 -172.8,-824.7 -262.5,-1671 -266.4,-2515.4 l -0.3,-59.6 -58,-13.5 c -871.6,-202.8 -1722.6,-499.1 -2529.2,-880.7 -623.8,-295.2 -1228,-644.8 -1795.8,-1039.2 l -44.3,-30.8"
         style="fill:#231f20;fill-opacity:1;fill-rule:nonzero;stroke:none"
         id="path30" />
      <path
         d="m 12171.4,11507.2 c 494.2,-168.4 956.5,-378.4 1374.9,-624.3 54.9,-32.3 108.8,-65.1 166,-99.7 189.2,-114.9 403.8,-245.1 713.7,-392.3 237.8,-113 483.8,-213.4 731.7,-298.6 436.1,295.3 894,567.8 1361.4,810.2 464.7,241 948.4,457.1 1438.3,642.7 9.7,501 85.7,979.9 226,1424.3 51.2,162 100.8,288.1 153.3,421.7 60.3,153.5 122.7,312.2 199.8,552.5 103,321.4 187.2,650.3 250.9,979.1 -414.3,-43.1 -792.3,12.9 -1124.9,167 -428.3,198.4 -665.4,502.2 -822.4,703.2 l -22.1,28.3 c -457.5,583.2 -1050.4,1148.3 -1762.8,1680.1 -349.4,-216.8 -680.3,-466.6 -984.3,-743.2 -278.6,-253.4 -470.2,-470.9 -639.1,-662.8 -235.5,-267.5 -438.9,-498.4 -787.3,-727.9 -344.5,-226.8 -741.1,-390.3 -1179.6,-486.2 -32.6,-376.5 -0.1,-742.6 96.7,-1089 62.7,-224.1 134.2,-375.4 209.9,-535.7 65.7,-139 133.7,-282.8 201.5,-483.7 132.7,-392.7 199.3,-818.2 198.4,-1265.7 z m 3009,-1581.8 -35.6,12 c -265.5,89.6 -529.1,196.3 -783.6,317.3 -316.8,150.5 -534.8,282.8 -727.2,399.5 -56.6,34.4 -110.2,66.9 -164.1,98.6 -424,249.3 -894.4,460.9 -1398.2,628.9 l -52.3,17.5 0.8,55.1 c 6.4,450.5 -57.5,877.9 -190,1270.3 -65.1,192.7 -131.2,332.4 -195,467.6 -78.5,166.2 -152.7,323.1 -218.8,559.4 -106.7,381.6 -139.1,785.2 -96.3,1199.7 l 5.7,55 54.2,11.1 c 441.3,90.3 838.9,250.5 1181.5,476.1 331.6,218.3 528.8,442.3 757.1,701.6 171.5,194.8 366,415.6 650.8,674.7 323.6,294.3 677,559.1 1050.5,787 l 43.3,26.5 40.8,-30.2 c 741.5,-548.8 1358.1,-1133.8 1832.7,-1738.7 l 22.3,-28.6 c 148,-189.6 371.7,-476.1 766.9,-659.2 333.3,-154.4 718.2,-202 1144,-141.7 l 103.3,14.7 -18.5,-102.8 c -66.7,-368.8 -159.1,-738.6 -274.6,-1099.1 -78.5,-245 -144.7,-413.2 -203,-561.6 -51.6,-131.2 -100.2,-255 -149.8,-412 -140.8,-445.5 -214.7,-927.3 -219.9,-1432.1 l -0.5,-51.7 -48.4,-18.2 c -500.8,-187.5 -995.3,-407.4 -1470,-653.5 -473.3,-245.4 -936.6,-522 -1377.1,-822.1 l -31,-21.1"
         style="fill:#231f20;fill-opacity:1;fill-rule:nonzero;stroke:none"
         id="path32" />
    </g>
  </g>
</svg>
